<mxfile host="65bd71144e">
    <diagram id="g69ynL82OjRudsUEuq0z" name="Page-1">
        <mxGraphModel dx="1260" dy="1554" grid="1" gridSize="10" guides="1" tooltips="1" connect="1" arrows="1" fold="1" page="1" pageScale="1" pageWidth="800" pageHeight="600" background="#ffffff" math="0" shadow="0">
            <root>
                <mxCell id="0"/>
                <mxCell id="1" parent="0"/>
                <mxCell id="213" style="edgeStyle=none;jumpStyle=none;jumpSize=15;html=1;exitX=0;exitY=0.25;exitDx=0;exitDy=0;endArrow=block;endFill=0;entryX=1;entryY=0.5;entryDx=0;entryDy=0;" edge="1" parent="1" source="2" target="9">
                    <mxGeometry relative="1" as="geometry">
                        <mxPoint x="220" y="220" as="targetPoint"/>
                        <Array as="points">
                            <mxPoint x="240" y="420"/>
                            <mxPoint x="240" y="171"/>
                        </Array>
                    </mxGeometry>
                </mxCell>
                <mxCell id="2" value="municipality_t" style="swimlane;fontStyle=1;align=center;verticalAlign=top;childLayout=stackLayout;horizontal=0;startSize=26;horizontalStack=0;resizeParent=1;resizeParentMax=0;resizeLast=0;collapsible=1;marginBottom=0;fillColor=#FFB366;" parent="1" vertex="1">
                    <mxGeometry x="290" y="395" width="250" height="98" as="geometry"/>
                </mxCell>
                <mxCell id="97" value="+ nuts_3: REF nuts_3_t" style="text;strokeColor=none;fillColor=none;align=left;verticalAlign=top;spacingLeft=4;spacingRight=4;overflow=hidden;rotatable=0;points=[[0,0.5],[1,0.5]];portConstraint=eastwest;" parent="2" vertex="1">
                    <mxGeometry x="26" width="224" height="26" as="geometry"/>
                </mxCell>
                <mxCell id="3" value="+ expenses: aremuneration_tab" style="text;strokeColor=none;fillColor=none;align=left;verticalAlign=top;spacingLeft=4;spacingRight=4;overflow=hidden;rotatable=0;points=[[0,0.5],[1,0.5]];portConstraint=eastwest;" parent="2" vertex="1">
                    <mxGeometry x="26" y="26" width="224" height="26" as="geometry"/>
                </mxCell>
                <mxCell id="99" value="+ revenues: aremuneration_tab" style="text;strokeColor=none;fillColor=none;align=left;verticalAlign=top;spacingLeft=4;spacingRight=4;overflow=hidden;rotatable=0;points=[[0,0.5],[1,0.5]];portConstraint=eastwest;" parent="2" vertex="1">
                    <mxGeometry x="26" y="52" width="224" height="38" as="geometry"/>
                </mxCell>
                <mxCell id="4" value="" style="line;strokeWidth=1;fillColor=none;align=left;verticalAlign=middle;spacingTop=-1;spacingLeft=3;spacingRight=3;rotatable=0;labelPosition=right;points=[];portConstraint=eastwest;" parent="2" vertex="1">
                    <mxGeometry x="26" y="90" width="224" height="8" as="geometry"/>
                </mxCell>
                <mxCell id="6" value="&lt;&lt;Interface&gt;&gt;&#10;nuts_t" style="swimlane;fontStyle=1;childLayout=stackLayout;horizontal=0;startSize=40;horizontalStack=0;resizeParent=1;resizeParentMax=0;resizeLast=0;collapsible=1;marginBottom=0;fillColor=#FFB366;" parent="1" vertex="1">
                    <mxGeometry x="30" y="106" width="170" height="130" as="geometry"/>
                </mxCell>
                <mxCell id="7" value="+ code: varchar" style="text;strokeColor=none;fillColor=none;align=left;verticalAlign=top;spacingLeft=4;spacingRight=4;overflow=hidden;rotatable=0;points=[[0,0.5],[1,0.5]];portConstraint=eastwest;fontStyle=0" parent="6" vertex="1">
                    <mxGeometry x="40" width="130" height="26" as="geometry"/>
                </mxCell>
                <mxCell id="8" value="+ designation: varchar" style="text;strokeColor=none;fillColor=none;align=left;verticalAlign=top;spacingLeft=4;spacingRight=4;overflow=hidden;rotatable=0;points=[[0,0.5],[1,0.5]];portConstraint=eastwest;" parent="6" vertex="1">
                    <mxGeometry x="40" y="26" width="130" height="26" as="geometry"/>
                </mxCell>
                <mxCell id="9" value="+ acronym: varchar" style="text;strokeColor=none;fillColor=none;align=left;verticalAlign=top;spacingLeft=4;spacingRight=4;overflow=hidden;rotatable=0;points=[[0,0.5],[1,0.5]];portConstraint=eastwest;" parent="6" vertex="1">
                    <mxGeometry x="40" y="52" width="130" height="26" as="geometry"/>
                </mxCell>
                <mxCell id="26" value="+ area: number" style="text;strokeColor=none;fillColor=none;align=left;verticalAlign=top;spacingLeft=4;spacingRight=4;overflow=hidden;rotatable=0;points=[[0,0.5],[1,0.5]];portConstraint=eastwest;" parent="6" vertex="1">
                    <mxGeometry x="40" y="78" width="130" height="26" as="geometry"/>
                </mxCell>
                <mxCell id="27" value="+ population: number" style="text;strokeColor=none;fillColor=none;align=left;verticalAlign=top;spacingLeft=4;spacingRight=4;overflow=hidden;rotatable=0;points=[[0,0.5],[1,0.5]];portConstraint=eastwest;" parent="6" vertex="1">
                    <mxGeometry x="40" y="104" width="130" height="26" as="geometry"/>
                </mxCell>
                <mxCell id="149" style="edgeStyle=none;html=1;exitX=1;exitY=0.75;exitDx=0;exitDy=0;dashed=1;endArrow=open;endFill=0;entryX=0.25;entryY=1;entryDx=0;entryDy=0;" edge="1" parent="1" source="10" target="127">
                    <mxGeometry relative="1" as="geometry">
                        <mxPoint x="570" y="370" as="targetPoint"/>
                        <Array as="points">
                            <mxPoint x="590" y="320"/>
                            <mxPoint x="590" y="417"/>
                        </Array>
                    </mxGeometry>
                </mxCell>
                <mxCell id="212" style="edgeStyle=none;jumpStyle=none;jumpSize=15;html=1;exitX=0;exitY=0.25;exitDx=0;exitDy=0;endArrow=block;endFill=0;entryX=1;entryY=0.5;entryDx=0;entryDy=0;" edge="1" parent="1" source="10" target="9">
                    <mxGeometry relative="1" as="geometry">
                        <mxPoint x="250" y="230" as="targetPoint"/>
                        <Array as="points">
                            <mxPoint x="240" y="290"/>
                            <mxPoint x="240" y="171"/>
                        </Array>
                    </mxGeometry>
                </mxCell>
                <mxCell id="10" value="nuts_3_t" style="swimlane;fontStyle=1;align=center;verticalAlign=top;childLayout=stackLayout;horizontal=0;startSize=26;horizontalStack=0;resizeParent=1;resizeParentMax=0;resizeLast=0;collapsible=1;marginBottom=0;fillColor=#FFB366;" parent="1" vertex="1">
                    <mxGeometry x="290" y="275" width="250" height="60" as="geometry"/>
                </mxCell>
                <mxCell id="11" value="+ nuts_2: REF nuts_2_t" style="text;strokeColor=none;fillColor=none;align=left;verticalAlign=top;spacingLeft=4;spacingRight=4;overflow=hidden;rotatable=0;points=[[0,0.5],[1,0.5]];portConstraint=eastwest;" parent="10" vertex="1">
                    <mxGeometry x="26" width="224" height="26" as="geometry"/>
                </mxCell>
                <mxCell id="32" value="+ municipalities: municipalities_tab" style="text;strokeColor=none;fillColor=none;align=left;verticalAlign=top;spacingLeft=4;spacingRight=4;overflow=hidden;rotatable=0;points=[[0,0.5],[1,0.5]];portConstraint=eastwest;" parent="10" vertex="1">
                    <mxGeometry x="26" y="26" width="224" height="26" as="geometry"/>
                </mxCell>
                <mxCell id="12" value="" style="line;strokeWidth=1;fillColor=none;align=left;verticalAlign=middle;spacingTop=-1;spacingLeft=3;spacingRight=3;rotatable=0;labelPosition=right;points=[];portConstraint=eastwest;" parent="10" vertex="1">
                    <mxGeometry x="26" y="52" width="224" height="8" as="geometry"/>
                </mxCell>
                <mxCell id="153" style="edgeStyle=none;html=1;exitX=1;exitY=0.75;exitDx=0;exitDy=0;dashed=1;endArrow=open;endFill=0;entryX=0.25;entryY=1;entryDx=0;entryDy=0;" edge="1" parent="1" source="33" target="128">
                    <mxGeometry relative="1" as="geometry">
                        <mxPoint x="580" y="220" as="targetPoint"/>
                        <Array as="points">
                            <mxPoint x="580" y="213"/>
                            <mxPoint x="590" y="213"/>
                            <mxPoint x="590" y="286"/>
                        </Array>
                    </mxGeometry>
                </mxCell>
                <mxCell id="211" style="edgeStyle=none;jumpStyle=none;jumpSize=15;html=1;exitX=0;exitY=0.5;exitDx=0;exitDy=0;endArrow=block;endFill=0;entryX=1;entryY=0.5;entryDx=0;entryDy=0;" edge="1" parent="1" source="33" target="9">
                    <mxGeometry relative="1" as="geometry">
                        <mxPoint x="200" y="170" as="targetPoint"/>
                        <Array as="points">
                            <mxPoint x="240" y="198"/>
                            <mxPoint x="240" y="171"/>
                        </Array>
                    </mxGeometry>
                </mxCell>
                <mxCell id="33" value="nuts_2_t" style="swimlane;fontStyle=1;align=center;verticalAlign=top;childLayout=stackLayout;horizontal=0;startSize=26;horizontalStack=0;resizeParent=1;resizeParentMax=0;resizeLast=0;collapsible=1;marginBottom=0;fillColor=#FFB366;" parent="1" vertex="1">
                    <mxGeometry x="290" y="167.5" width="250" height="60" as="geometry"/>
                </mxCell>
                <mxCell id="34" value="+ nuts_1: REF nuts_1_t" style="text;strokeColor=none;fillColor=none;align=left;verticalAlign=top;spacingLeft=4;spacingRight=4;overflow=hidden;rotatable=0;points=[[0,0.5],[1,0.5]];portConstraint=eastwest;" parent="33" vertex="1">
                    <mxGeometry x="26" width="224" height="26" as="geometry"/>
                </mxCell>
                <mxCell id="35" value="+ nuts_3: nuts_3_tab" style="text;strokeColor=none;fillColor=none;align=left;verticalAlign=top;spacingLeft=4;spacingRight=4;overflow=hidden;rotatable=0;points=[[0,0.5],[1,0.5]];portConstraint=eastwest;" parent="33" vertex="1">
                    <mxGeometry x="26" y="26" width="224" height="26" as="geometry"/>
                </mxCell>
                <mxCell id="36" value="" style="line;strokeWidth=1;fillColor=none;align=left;verticalAlign=middle;spacingTop=-1;spacingLeft=3;spacingRight=3;rotatable=0;labelPosition=right;points=[];portConstraint=eastwest;" parent="33" vertex="1">
                    <mxGeometry x="26" y="52" width="224" height="8" as="geometry"/>
                </mxCell>
                <mxCell id="157" style="edgeStyle=none;html=1;exitX=1;exitY=0.75;exitDx=0;exitDy=0;entryX=0.25;entryY=1;entryDx=0;entryDy=0;dashed=1;endArrow=open;endFill=0;" edge="1" parent="1" source="48" target="129">
                    <mxGeometry relative="1" as="geometry">
                        <Array as="points">
                            <mxPoint x="590" y="108"/>
                            <mxPoint x="590" y="178"/>
                        </Array>
                    </mxGeometry>
                </mxCell>
                <mxCell id="210" style="edgeStyle=none;jumpStyle=none;jumpSize=15;html=1;exitX=0;exitY=0.5;exitDx=0;exitDy=0;entryX=1;entryY=0.5;entryDx=0;entryDy=0;endArrow=block;endFill=0;" edge="1" parent="1" source="48" target="9">
                    <mxGeometry relative="1" as="geometry">
                        <Array as="points">
                            <mxPoint x="240" y="93"/>
                            <mxPoint x="240" y="171"/>
                        </Array>
                    </mxGeometry>
                </mxCell>
                <mxCell id="48" value="nuts_1_t" style="swimlane;fontStyle=1;align=center;verticalAlign=top;childLayout=stackLayout;horizontal=0;startSize=26;horizontalStack=0;resizeParent=1;resizeParentMax=0;resizeLast=0;collapsible=1;marginBottom=0;fillColor=#FFB366;" parent="1" vertex="1">
                    <mxGeometry x="290" y="63" width="250" height="60" as="geometry"/>
                </mxCell>
                <mxCell id="49" value="+ country: REF country_t" style="text;strokeColor=none;fillColor=none;align=left;verticalAlign=top;spacingLeft=4;spacingRight=4;overflow=hidden;rotatable=0;points=[[0,0.5],[1,0.5]];portConstraint=eastwest;" parent="48" vertex="1">
                    <mxGeometry x="26" width="224" height="26" as="geometry"/>
                </mxCell>
                <mxCell id="50" value="+ nuts_2: nuts_2_tab" style="text;strokeColor=none;fillColor=none;align=left;verticalAlign=top;spacingLeft=4;spacingRight=4;overflow=hidden;rotatable=0;points=[[0,0.5],[1,0.5]];portConstraint=eastwest;" parent="48" vertex="1">
                    <mxGeometry x="26" y="26" width="224" height="26" as="geometry"/>
                </mxCell>
                <mxCell id="51" value="" style="line;strokeWidth=1;fillColor=none;align=left;verticalAlign=middle;spacingTop=-1;spacingLeft=3;spacingRight=3;rotatable=0;labelPosition=right;points=[];portConstraint=eastwest;" parent="48" vertex="1">
                    <mxGeometry x="26" y="52" width="224" height="8" as="geometry"/>
                </mxCell>
                <mxCell id="158" style="edgeStyle=none;html=1;exitX=1;exitY=0.75;exitDx=0;exitDy=0;entryX=0.25;entryY=1;entryDx=0;entryDy=0;dashed=1;endArrow=open;endFill=0;" edge="1" parent="1" source="53" target="126">
                    <mxGeometry relative="1" as="geometry">
                        <Array as="points">
                            <mxPoint x="590" y="11"/>
                            <mxPoint x="590" y="72"/>
                        </Array>
                    </mxGeometry>
                </mxCell>
                <mxCell id="204" style="edgeStyle=none;jumpStyle=none;jumpSize=15;html=1;exitX=0;exitY=0.75;exitDx=0;exitDy=0;entryX=1;entryY=0.5;entryDx=0;entryDy=0;endArrow=block;endFill=0;" edge="1" parent="1" source="53" target="9">
                    <mxGeometry relative="1" as="geometry">
                        <Array as="points">
                            <mxPoint x="240" y="11"/>
                            <mxPoint x="240" y="171"/>
                        </Array>
                    </mxGeometry>
                </mxCell>
                <mxCell id="53" value="country_t" style="swimlane;fontStyle=1;align=center;verticalAlign=top;childLayout=stackLayout;horizontal=0;startSize=26;horizontalStack=0;resizeParent=1;resizeParentMax=0;resizeLast=0;collapsible=1;marginBottom=0;fillColor=#FFB366;" parent="1" vertex="1">
                    <mxGeometry x="290" y="-40" width="250" height="68" as="geometry">
                        <mxRectangle x="140" y="-30" width="30" height="80" as="alternateBounds"/>
                    </mxGeometry>
                </mxCell>
                <mxCell id="55" value="+ nuts_1: nuts_1_tab" style="text;strokeColor=none;fillColor=none;align=left;verticalAlign=top;spacingLeft=4;spacingRight=4;overflow=hidden;rotatable=0;points=[[0,0.5],[1,0.5]];portConstraint=eastwest;" parent="53" vertex="1">
                    <mxGeometry x="26" width="224" height="60" as="geometry"/>
                </mxCell>
                <mxCell id="56" value="" style="line;strokeWidth=1;fillColor=none;align=left;verticalAlign=middle;spacingTop=-1;spacingLeft=3;spacingRight=3;rotatable=0;labelPosition=right;points=[];portConstraint=eastwest;" parent="53" vertex="1">
                    <mxGeometry x="26" y="60" width="224" height="8" as="geometry"/>
                </mxCell>
                <mxCell id="58" value="party_t" style="swimlane;fontStyle=1;align=center;verticalAlign=top;childLayout=stackLayout;horizontal=0;startSize=26;horizontalStack=0;resizeParent=1;resizeParentMax=0;resizeLast=0;collapsible=1;marginBottom=0;fillColor=#FFB366;" parent="1" vertex="1">
                    <mxGeometry x="150" y="-300" width="200" height="86" as="geometry"/>
                </mxCell>
                <mxCell id="66" value="+ acronym: varchar" style="text;strokeColor=none;fillColor=none;align=left;verticalAlign=top;spacingLeft=4;spacingRight=4;overflow=hidden;rotatable=0;points=[[0,0.5],[1,0.5]];portConstraint=eastwest;fontStyle=0" parent="58" vertex="1">
                    <mxGeometry x="26" width="174" height="26" as="geometry"/>
                </mxCell>
                <mxCell id="59" value="+ partyName: varchar" style="text;strokeColor=none;fillColor=none;align=left;verticalAlign=top;spacingLeft=4;spacingRight=4;overflow=hidden;rotatable=0;points=[[0,0.5],[1,0.5]];portConstraint=eastwest;fontStyle=0" parent="58" vertex="1">
                    <mxGeometry x="26" y="26" width="174" height="26" as="geometry"/>
                </mxCell>
                <mxCell id="67" value="+ spectrum: varchar" style="text;strokeColor=none;fillColor=none;align=left;verticalAlign=top;spacingLeft=4;spacingRight=4;overflow=hidden;rotatable=0;points=[[0,0.5],[1,0.5]];portConstraint=eastwest;fontStyle=0" parent="58" vertex="1">
                    <mxGeometry x="26" y="52" width="174" height="26" as="geometry"/>
                </mxCell>
                <mxCell id="60" value="" style="line;strokeWidth=1;fillColor=none;align=left;verticalAlign=middle;spacingTop=-1;spacingLeft=3;spacingRight=3;rotatable=0;labelPosition=right;points=[];portConstraint=eastwest;" parent="58" vertex="1">
                    <mxGeometry x="26" y="78" width="174" height="8" as="geometry"/>
                </mxCell>
                <mxCell id="143" style="edgeStyle=none;html=1;exitX=0;exitY=0.75;exitDx=0;exitDy=0;entryX=0;entryY=0.5;entryDx=0;entryDy=0;dashed=1;endArrow=open;endFill=0;" edge="1" parent="1" source="68" target="120">
                    <mxGeometry relative="1" as="geometry">
                        <Array as="points">
                            <mxPoint x="955" y="-246"/>
                        </Array>
                    </mxGeometry>
                </mxCell>
                <mxCell id="186" style="edgeStyle=none;html=1;exitX=0;exitY=0.5;exitDx=0;exitDy=0;entryX=0.5;entryY=0;entryDx=0;entryDy=0;dashed=1;endArrow=open;endFill=0;" edge="1" parent="1" source="68" target="140">
                    <mxGeometry relative="1" as="geometry">
                        <Array as="points">
                            <mxPoint x="920" y="-300"/>
                            <mxPoint x="920" y="-361"/>
                        </Array>
                    </mxGeometry>
                </mxCell>
                <mxCell id="68" value="period_t" style="swimlane;fontStyle=1;align=center;verticalAlign=top;childLayout=stackLayout;horizontal=0;startSize=26;horizontalStack=0;resizeParent=1;resizeParentMax=0;resizeLast=0;collapsible=1;marginBottom=0;fillColor=#FFB366;" parent="1" vertex="1">
                    <mxGeometry x="1017" y="-408" width="466" height="216" as="geometry"/>
                </mxCell>
                <mxCell id="69" value="+ periodId: number" style="text;strokeColor=none;fillColor=none;align=left;verticalAlign=top;spacingLeft=4;spacingRight=4;overflow=hidden;rotatable=0;points=[[0,0.5],[1,0.5]];portConstraint=eastwest;fontStyle=0" parent="68" vertex="1">
                    <mxGeometry x="26" width="440" height="26" as="geometry"/>
                </mxCell>
                <mxCell id="70" value="+ year: number" style="text;strokeColor=none;fillColor=none;align=left;verticalAlign=top;spacingLeft=4;spacingRight=4;overflow=hidden;rotatable=0;points=[[0,0.5],[1,0.5]];portConstraint=eastwest;fontStyle=0" parent="68" vertex="1">
                    <mxGeometry x="26" y="26" width="440" height="26" as="geometry"/>
                </mxCell>
                <mxCell id="74" value="+ quarter: number" style="text;strokeColor=none;fillColor=none;align=left;verticalAlign=top;spacingLeft=4;spacingRight=4;overflow=hidden;rotatable=0;points=[[0,0.5],[1,0.5]];portConstraint=eastwest;fontStyle=0" parent="68" vertex="1">
                    <mxGeometry x="26" y="52" width="440" height="26" as="geometry"/>
                </mxCell>
                <mxCell id="73" value="+ leaderships: leaderships_tab" style="text;strokeColor=none;fillColor=none;align=left;verticalAlign=top;spacingLeft=4;spacingRight=4;overflow=hidden;rotatable=0;points=[[0,0.5],[1,0.5]];portConstraint=eastwest;fontStyle=0" parent="68" vertex="1">
                    <mxGeometry x="26" y="78" width="440" height="26" as="geometry"/>
                </mxCell>
                <mxCell id="101" value="+ revenues: aremuneration_tab" style="text;strokeColor=none;fillColor=none;align=left;verticalAlign=top;spacingLeft=4;spacingRight=4;overflow=hidden;rotatable=0;points=[[0,0.5],[1,0.5]];portConstraint=eastwest;" parent="68" vertex="1">
                    <mxGeometry x="26" y="104" width="440" height="26" as="geometry"/>
                </mxCell>
                <mxCell id="100" value="+ expenses: aremuneration_tab" style="text;strokeColor=none;fillColor=none;align=left;verticalAlign=top;spacingLeft=4;spacingRight=4;overflow=hidden;rotatable=0;points=[[0,0.5],[1,0.5]];portConstraint=eastwest;" parent="68" vertex="1">
                    <mxGeometry x="26" y="130" width="440" height="26" as="geometry"/>
                </mxCell>
                <mxCell id="71" value="" style="line;strokeWidth=1;fillColor=none;align=left;verticalAlign=middle;spacingTop=-1;spacingLeft=3;spacingRight=3;rotatable=0;labelPosition=right;points=[];portConstraint=eastwest;" parent="68" vertex="1">
                    <mxGeometry x="26" y="156" width="440" height="8" as="geometry"/>
                </mxCell>
                <mxCell id="72" value="+ remunerations_km2(VARCHAR2, VARCHAR2, VARCHAR2): Number" style="text;strokeColor=none;fillColor=none;align=left;verticalAlign=top;spacingLeft=4;spacingRight=4;overflow=hidden;rotatable=0;points=[[0,0.5],[1,0.5]];portConstraint=eastwest;" parent="68" vertex="1">
                    <mxGeometry x="26" y="164" width="440" height="26" as="geometry"/>
                </mxCell>
                <mxCell id="111" value="+ remunerations_1k_people(VARCHAR2, VARCHAR2, VARCHAR2): Number" style="text;strokeColor=none;fillColor=none;align=left;verticalAlign=top;spacingLeft=4;spacingRight=4;overflow=hidden;rotatable=0;points=[[0,0.5],[1,0.5]];portConstraint=eastwest;" vertex="1" parent="68">
                    <mxGeometry x="26" y="190" width="440" height="26" as="geometry"/>
                </mxCell>
                <mxCell id="184" style="edgeStyle=none;html=1;exitX=0;exitY=0.5;exitDx=0;exitDy=0;entryX=1;entryY=0.5;entryDx=0;entryDy=0;dashed=1;endArrow=open;endFill=0;" edge="1" parent="1" source="75" target="59">
                    <mxGeometry relative="1" as="geometry">
                        <Array as="points">
                            <mxPoint x="410" y="-395"/>
                            <mxPoint x="410" y="-261"/>
                        </Array>
                    </mxGeometry>
                </mxCell>
                <mxCell id="75" value="leadership_t" style="swimlane;fontStyle=1;align=center;verticalAlign=top;childLayout=stackLayout;horizontal=0;startSize=26;horizontalStack=0;resizeParent=1;resizeParentMax=0;resizeLast=0;collapsible=1;marginBottom=0;fillColor=#FFB366;" parent="1" vertex="1">
                    <mxGeometry x="555" y="-438" width="200" height="86" as="geometry"/>
                </mxCell>
                <mxCell id="76" value="+ periodId: REF period_t" style="text;strokeColor=none;fillColor=none;align=left;verticalAlign=top;spacingLeft=4;spacingRight=4;overflow=hidden;rotatable=0;points=[[0,0.5],[1,0.5]];portConstraint=eastwest;fontStyle=0" parent="75" vertex="1">
                    <mxGeometry x="26" width="174" height="26" as="geometry"/>
                </mxCell>
                <mxCell id="77" value="+ code: REF municipality_t" style="text;strokeColor=none;fillColor=none;align=left;verticalAlign=top;spacingLeft=4;spacingRight=4;overflow=hidden;rotatable=0;points=[[0,0.5],[1,0.5]];portConstraint=eastwest;fontStyle=0" parent="75" vertex="1">
                    <mxGeometry x="26" y="26" width="174" height="26" as="geometry"/>
                </mxCell>
                <mxCell id="80" value="+ party: REF party_t" style="text;strokeColor=none;fillColor=none;align=left;verticalAlign=top;spacingLeft=4;spacingRight=4;overflow=hidden;rotatable=0;points=[[0,0.5],[1,0.5]];portConstraint=eastwest;fontStyle=0" parent="75" vertex="1">
                    <mxGeometry x="26" y="52" width="174" height="26" as="geometry"/>
                </mxCell>
                <mxCell id="78" value="" style="line;strokeWidth=1;fillColor=none;align=left;verticalAlign=middle;spacingTop=-1;spacingLeft=3;spacingRight=3;rotatable=0;labelPosition=right;points=[];portConstraint=eastwest;" parent="75" vertex="1">
                    <mxGeometry x="26" y="78" width="174" height="8" as="geometry"/>
                </mxCell>
                <mxCell id="144" style="edgeStyle=none;html=1;exitX=0;exitY=0.5;exitDx=0;exitDy=0;entryX=1;entryY=0.5;entryDx=0;entryDy=0;dashed=1;endArrow=open;endFill=0;" edge="1" parent="1" source="81" target="120">
                    <mxGeometry relative="1" as="geometry">
                        <Array as="points">
                            <mxPoint x="955" y="171"/>
                        </Array>
                    </mxGeometry>
                </mxCell>
                <mxCell id="147" style="edgeStyle=none;html=1;exitX=0.25;exitY=1;exitDx=0;exitDy=0;dashed=1;endArrow=open;endFill=0;entryX=0.5;entryY=0;entryDx=0;entryDy=0;" edge="1" parent="1" source="81" target="141">
                    <mxGeometry relative="1" as="geometry">
                        <mxPoint x="1087.5" y="300" as="targetPoint"/>
                        <Array as="points">
                            <mxPoint x="1088" y="335"/>
                        </Array>
                    </mxGeometry>
                </mxCell>
                <mxCell id="81" value="heading_t" style="swimlane;fontStyle=1;align=center;verticalAlign=top;childLayout=stackLayout;horizontal=0;startSize=26;horizontalStack=0;resizeParent=1;resizeParentMax=0;resizeLast=0;collapsible=1;marginBottom=0;fillColor=#FFB366;" parent="1" vertex="1">
                    <mxGeometry x="1020" y="76" width="270" height="190" as="geometry"/>
                </mxCell>
                <mxCell id="82" value="+ headingId: number" style="text;strokeColor=none;fillColor=none;align=left;verticalAlign=top;spacingLeft=4;spacingRight=4;overflow=hidden;rotatable=0;points=[[0,0.5],[1,0.5]];portConstraint=eastwest;fontStyle=0" parent="81" vertex="1">
                    <mxGeometry x="26" width="244" height="26" as="geometry"/>
                </mxCell>
                <mxCell id="83" value="+ description: varchar" style="text;strokeColor=none;fillColor=none;align=left;verticalAlign=top;spacingLeft=4;spacingRight=4;overflow=hidden;rotatable=0;points=[[0,0.5],[1,0.5]];portConstraint=eastwest;fontStyle=0" parent="81" vertex="1">
                    <mxGeometry x="26" y="26" width="244" height="26" as="geometry"/>
                </mxCell>
                <mxCell id="84" value="+ type: varchar" style="text;strokeColor=none;fillColor=none;align=left;verticalAlign=top;spacingLeft=4;spacingRight=4;overflow=hidden;rotatable=0;points=[[0,0.5],[1,0.5]];portConstraint=eastwest;fontStyle=0" parent="81" vertex="1">
                    <mxGeometry x="26" y="52" width="244" height="26" as="geometry"/>
                </mxCell>
                <mxCell id="88" value="+ childHeadings: heading_tab" style="text;strokeColor=none;fillColor=none;align=left;verticalAlign=top;spacingLeft=4;spacingRight=4;overflow=hidden;rotatable=0;points=[[0,0.5],[1,0.5]];portConstraint=eastwest;fontStyle=0" parent="81" vertex="1">
                    <mxGeometry x="26" y="78" width="244" height="26" as="geometry"/>
                </mxCell>
                <mxCell id="102" value="+ remunerations: aremuneration_tab" style="text;strokeColor=none;fillColor=none;align=left;verticalAlign=top;spacingLeft=4;spacingRight=4;overflow=hidden;rotatable=0;points=[[0,0.5],[1,0.5]];portConstraint=eastwest;" parent="81" vertex="1">
                    <mxGeometry x="26" y="104" width="244" height="26" as="geometry"/>
                </mxCell>
                <mxCell id="86" value="" style="line;strokeWidth=1;fillColor=none;align=left;verticalAlign=middle;spacingTop=-1;spacingLeft=3;spacingRight=3;rotatable=0;labelPosition=right;points=[];portConstraint=eastwest;" parent="81" vertex="1">
                    <mxGeometry x="26" y="130" width="244" height="8" as="geometry"/>
                </mxCell>
                <mxCell id="87" value="+ get_value(): NUMBER" style="text;strokeColor=none;fillColor=none;align=left;verticalAlign=top;spacingLeft=4;spacingRight=4;overflow=hidden;rotatable=0;points=[[0,0.5],[1,0.5]];portConstraint=eastwest;" parent="81" vertex="1">
                    <mxGeometry x="26" y="138" width="244" height="26" as="geometry"/>
                </mxCell>
                <mxCell id="112" value="+ is_consistent(): VARCHAR2" style="text;strokeColor=none;fillColor=none;align=left;verticalAlign=top;spacingLeft=4;spacingRight=4;overflow=hidden;rotatable=0;points=[[0,0.5],[1,0.5]];portConstraint=eastwest;" vertex="1" parent="81">
                    <mxGeometry x="26" y="164" width="244" height="26" as="geometry"/>
                </mxCell>
                <mxCell id="199" style="edgeStyle=none;html=1;exitX=0;exitY=0.75;exitDx=0;exitDy=0;dashed=1;endArrow=open;endFill=0;entryX=0.174;entryY=-0.014;entryDx=0;entryDy=0;entryPerimeter=0;" edge="1" parent="1" source="89" target="82">
                    <mxGeometry relative="1" as="geometry">
                        <mxPoint x="1090" y="70" as="targetPoint"/>
                        <Array as="points">
                            <mxPoint x="1088" y="-6"/>
                        </Array>
                    </mxGeometry>
                </mxCell>
                <mxCell id="201" style="edgeStyle=none;html=1;exitX=0.25;exitY=0;exitDx=0;exitDy=0;dashed=1;endArrow=open;endFill=0;entryX=0.357;entryY=1.005;entryDx=0;entryDy=0;entryPerimeter=0;" edge="1" parent="1" source="89" target="111">
                    <mxGeometry relative="1" as="geometry">
                        <mxPoint x="1160" y="-160" as="targetPoint"/>
                    </mxGeometry>
                </mxCell>
                <mxCell id="203" style="edgeStyle=none;html=1;exitX=0.25;exitY=1;exitDx=0;exitDy=0;entryX=1;entryY=0.5;entryDx=0;entryDy=0;dashed=1;endArrow=open;endFill=0;jumpStyle=arc;jumpSize=15;" edge="1" parent="1" source="89" target="97">
                    <mxGeometry relative="1" as="geometry">
                        <Array as="points">
                            <mxPoint x="1200" y="60"/>
                            <mxPoint x="910" y="60"/>
                            <mxPoint x="910" y="380"/>
                            <mxPoint x="570" y="380"/>
                            <mxPoint x="570" y="408"/>
                        </Array>
                    </mxGeometry>
                </mxCell>
                <mxCell id="89" value="aremuneration_t" style="swimlane;fontStyle=1;align=center;verticalAlign=top;childLayout=stackLayout;horizontal=0;startSize=26;horizontalStack=0;resizeParent=1;resizeParentMax=0;resizeLast=0;collapsible=1;marginBottom=0;fillColor=#FFB366;" parent="1" vertex="1">
                    <mxGeometry x="1150" y="-110" width="200" height="138" as="geometry"/>
                </mxCell>
                <mxCell id="90" value="+ aremunerationId: number" style="text;strokeColor=none;fillColor=none;align=left;verticalAlign=top;spacingLeft=4;spacingRight=4;overflow=hidden;rotatable=0;points=[[0,0.5],[1,0.5]];portConstraint=eastwest;fontStyle=0" parent="89" vertex="1">
                    <mxGeometry x="26" width="174" height="26" as="geometry"/>
                </mxCell>
                <mxCell id="91" value="+ amount: number" style="text;strokeColor=none;fillColor=none;align=left;verticalAlign=top;spacingLeft=4;spacingRight=4;overflow=hidden;rotatable=0;points=[[0,0.5],[1,0.5]];portConstraint=eastwest;fontStyle=0" parent="89" vertex="1">
                    <mxGeometry x="26" y="26" width="174" height="26" as="geometry"/>
                </mxCell>
                <mxCell id="92" value="+ heading: REF heading_t" style="text;strokeColor=none;fillColor=none;align=left;verticalAlign=top;spacingLeft=4;spacingRight=4;overflow=hidden;rotatable=0;points=[[0,0.5],[1,0.5]];portConstraint=eastwest;fontStyle=0" parent="89" vertex="1">
                    <mxGeometry x="26" y="52" width="174" height="26" as="geometry"/>
                </mxCell>
                <mxCell id="93" value="+ code: REF municipality_t" style="text;strokeColor=none;fillColor=none;align=left;verticalAlign=top;spacingLeft=4;spacingRight=4;overflow=hidden;rotatable=0;points=[[0,0.5],[1,0.5]];portConstraint=eastwest;fontStyle=0" parent="89" vertex="1">
                    <mxGeometry x="26" y="78" width="174" height="26" as="geometry"/>
                </mxCell>
                <mxCell id="96" value="+ period: REF period_t" style="text;strokeColor=none;fillColor=none;align=left;verticalAlign=top;spacingLeft=4;spacingRight=4;overflow=hidden;rotatable=0;points=[[0,0.5],[1,0.5]];portConstraint=eastwest;fontStyle=0" parent="89" vertex="1">
                    <mxGeometry x="26" y="104" width="174" height="26" as="geometry"/>
                </mxCell>
                <mxCell id="94" value="" style="line;strokeWidth=1;fillColor=none;align=left;verticalAlign=middle;spacingTop=-1;spacingLeft=3;spacingRight=3;rotatable=0;labelPosition=right;points=[];portConstraint=eastwest;" parent="89" vertex="1">
                    <mxGeometry x="26" y="130" width="174" height="8" as="geometry"/>
                </mxCell>
                <mxCell id="142" style="edgeStyle=none;html=1;exitX=0.5;exitY=0;exitDx=0;exitDy=0;entryX=0;entryY=0.5;entryDx=0;entryDy=0;dashed=1;endArrow=open;endFill=0;" edge="1" parent="1" source="120" target="89">
                    <mxGeometry relative="1" as="geometry"/>
                </mxCell>
                <mxCell id="120" value="aremuneration_tab" style="html=1;fillColor=#FFB366;direction=south;horizontal=0;fontStyle=1" vertex="1" parent="1">
                    <mxGeometry x="930" y="-110" width="50" height="138" as="geometry"/>
                </mxCell>
                <mxCell id="156" style="edgeStyle=none;html=1;exitX=0.5;exitY=1;exitDx=0;exitDy=0;entryX=1;entryY=0.165;entryDx=0;entryDy=0;entryPerimeter=0;dashed=1;endArrow=open;endFill=0;" edge="1" parent="1" source="126" target="50">
                    <mxGeometry relative="1" as="geometry"/>
                </mxCell>
                <mxCell id="126" value="nuts_1_tab" style="html=1;fillColor=#FFB366;direction=south;horizontal=0;fontStyle=1" vertex="1" parent="1">
                    <mxGeometry x="630" y="50" width="50" height="86" as="geometry"/>
                </mxCell>
                <mxCell id="148" style="edgeStyle=none;html=1;exitX=0.5;exitY=1;exitDx=0;exitDy=0;entryX=1;entryY=0.5;entryDx=0;entryDy=0;dashed=1;endArrow=open;endFill=0;" edge="1" parent="1" source="127" target="2">
                    <mxGeometry relative="1" as="geometry"/>
                </mxCell>
                <mxCell id="127" value="municipality_tab" style="html=1;fillColor=#FFB366;direction=south;horizontal=0;fontStyle=1" vertex="1" parent="1">
                    <mxGeometry x="630" y="390" width="50" height="108" as="geometry"/>
                </mxCell>
                <mxCell id="151" style="edgeStyle=none;html=1;exitX=0.5;exitY=1;exitDx=0;exitDy=0;dashed=1;endArrow=open;endFill=0;entryX=1;entryY=0.154;entryDx=0;entryDy=0;entryPerimeter=0;" edge="1" parent="1" source="128" target="32">
                    <mxGeometry relative="1" as="geometry">
                        <mxPoint x="550" y="305" as="targetPoint"/>
                    </mxGeometry>
                </mxCell>
                <mxCell id="128" value="nuts_3_tab" style="html=1;fillColor=#FFB366;direction=south;horizontal=0;fontStyle=1" vertex="1" parent="1">
                    <mxGeometry x="630" y="268" width="50" height="74" as="geometry"/>
                </mxCell>
                <mxCell id="155" style="edgeStyle=none;html=1;exitX=0.5;exitY=1;exitDx=0;exitDy=0;dashed=1;endArrow=open;endFill=0;" edge="1" parent="1" source="129">
                    <mxGeometry relative="1" as="geometry">
                        <mxPoint x="540" y="198" as="targetPoint"/>
                    </mxGeometry>
                </mxCell>
                <mxCell id="129" value="nuts_2_tab" style="html=1;fillColor=#FFB366;direction=south;horizontal=0;fontStyle=1" vertex="1" parent="1">
                    <mxGeometry x="630" y="158.75" width="50" height="77.5" as="geometry"/>
                </mxCell>
                <mxCell id="219" style="edgeStyle=none;jumpStyle=none;jumpSize=15;html=1;exitX=0.5;exitY=1;exitDx=0;exitDy=0;entryX=1;entryY=0.5;entryDx=0;entryDy=0;dashed=1;endArrow=open;endFill=0;" edge="1" parent="1" source="140" target="75">
                    <mxGeometry relative="1" as="geometry">
                        <Array as="points">
                            <mxPoint x="780" y="-361"/>
                            <mxPoint x="780" y="-395"/>
                        </Array>
                    </mxGeometry>
                </mxCell>
                <mxCell id="140" value="leaderships_tab" style="html=1;fillColor=#FFB366;direction=south;horizontal=0;fontStyle=1" vertex="1" parent="1">
                    <mxGeometry x="800" y="-430" width="50" height="138" as="geometry"/>
                </mxCell>
                <mxCell id="145" style="edgeStyle=none;html=1;exitX=0;exitY=0.5;exitDx=0;exitDy=0;entryX=0;entryY=0.75;entryDx=0;entryDy=0;dashed=1;endArrow=open;endFill=0;" edge="1" parent="1" source="141" target="81">
                    <mxGeometry relative="1" as="geometry">
                        <Array as="points">
                            <mxPoint x="955" y="219"/>
                        </Array>
                    </mxGeometry>
                </mxCell>
                <mxCell id="141" value="headings_tab" style="html=1;fillColor=#FFB366;direction=south;horizontal=0;fontStyle=1" vertex="1" parent="1">
                    <mxGeometry x="930" y="266" width="50" height="138" as="geometry"/>
                </mxCell>
                <mxCell id="159" style="edgeStyle=none;html=1;exitX=1;exitY=0.5;exitDx=0;exitDy=0;entryX=0.75;entryY=1;entryDx=0;entryDy=0;dashed=1;endArrow=open;endFill=0;jumpStyle=arc;jumpSize=20;" edge="1" parent="1" source="99" target="120">
                    <mxGeometry relative="1" as="geometry">
                        <Array as="points">
                            <mxPoint x="590" y="466"/>
                            <mxPoint x="590" y="540"/>
                            <mxPoint x="880" y="540"/>
                            <mxPoint x="880" y="-6"/>
                        </Array>
                    </mxGeometry>
                </mxCell>
                <mxCell id="173" style="edgeStyle=none;html=1;entryX=0;entryY=0.5;entryDx=0;entryDy=0;dashed=1;endArrow=open;endFill=0;" edge="1" parent="1" source="169" target="2">
                    <mxGeometry relative="1" as="geometry">
                        <Array as="points">
                            <mxPoint x="130" y="444"/>
                        </Array>
                    </mxGeometry>
                </mxCell>
                <mxCell id="169" value="municipalities: municipality_t" style="swimlane;fontStyle=0;childLayout=stackLayout;horizontal=1;startSize=26;fillColor=#CCCCCC;horizontalStack=0;resizeParent=1;resizeParentMax=0;resizeLast=0;collapsible=1;marginBottom=0;" vertex="1" parent="1">
                    <mxGeometry x="45" y="510" width="170" height="52" as="geometry"/>
                </mxCell>
                <mxCell id="175" style="edgeStyle=none;html=1;exitX=0.5;exitY=0;exitDx=0;exitDy=0;entryX=0;entryY=0.5;entryDx=0;entryDy=0;dashed=1;endArrow=open;endFill=0;" edge="1" parent="1" source="174" target="10">
                    <mxGeometry relative="1" as="geometry">
                        <Array as="points">
                            <mxPoint x="130" y="305"/>
                        </Array>
                    </mxGeometry>
                </mxCell>
                <mxCell id="174" value="nuts_3: nuts_3_t" style="swimlane;fontStyle=0;childLayout=stackLayout;horizontal=1;startSize=26;fillColor=#CCCCCC;horizontalStack=0;resizeParent=1;resizeParentMax=0;resizeLast=0;collapsible=1;marginBottom=0;" vertex="1" parent="1">
                    <mxGeometry x="80" y="360" width="100" height="52" as="geometry"/>
                </mxCell>
                <mxCell id="215" style="edgeStyle=none;jumpStyle=none;jumpSize=15;html=1;exitX=1;exitY=0.75;exitDx=0;exitDy=0;entryX=0;entryY=0.25;entryDx=0;entryDy=0;endArrow=open;endFill=0;dashed=1;" edge="1" parent="1" source="176" target="33">
                    <mxGeometry relative="1" as="geometry">
                        <Array as="points">
                            <mxPoint x="220" y="67"/>
                            <mxPoint x="220" y="150"/>
                            <mxPoint x="270" y="150"/>
                            <mxPoint x="270" y="183"/>
                        </Array>
                    </mxGeometry>
                </mxCell>
                <mxCell id="176" value="nuts_2: nuts_2_t" style="swimlane;fontStyle=0;childLayout=stackLayout;horizontal=1;startSize=26;fillColor=#CCCCCC;horizontalStack=0;resizeParent=1;resizeParentMax=0;resizeLast=0;collapsible=1;marginBottom=0;" vertex="1" parent="1">
                    <mxGeometry x="55" y="28" width="120" height="52" as="geometry"/>
                </mxCell>
                <mxCell id="216" style="edgeStyle=none;jumpStyle=none;jumpSize=15;html=1;exitX=1;exitY=0.75;exitDx=0;exitDy=0;entryX=0;entryY=0.25;entryDx=0;entryDy=0;dashed=1;endArrow=open;endFill=0;" edge="1" parent="1" source="177" target="48">
                    <mxGeometry relative="1" as="geometry">
                        <Array as="points">
                            <mxPoint x="210" y="-13"/>
                            <mxPoint x="210" y="40"/>
                            <mxPoint x="270" y="40"/>
                            <mxPoint x="270" y="78"/>
                        </Array>
                    </mxGeometry>
                </mxCell>
                <mxCell id="177" value="nuts_1: nuts_1_t" style="swimlane;fontStyle=0;childLayout=stackLayout;horizontal=1;startSize=26;fillColor=#CCCCCC;horizontalStack=0;resizeParent=1;resizeParentMax=0;resizeLast=0;collapsible=1;marginBottom=0;" vertex="1" parent="1">
                    <mxGeometry x="55" y="-52" width="120" height="52" as="geometry"/>
                </mxCell>
                <mxCell id="217" style="edgeStyle=none;jumpStyle=none;jumpSize=15;html=1;exitX=1;exitY=0.75;exitDx=0;exitDy=0;entryX=0;entryY=0.25;entryDx=0;entryDy=0;dashed=1;endArrow=open;endFill=0;" edge="1" parent="1" source="178" target="53">
                    <mxGeometry relative="1" as="geometry">
                        <Array as="points">
                            <mxPoint x="240" y="-91"/>
                            <mxPoint x="240" y="-23"/>
                        </Array>
                    </mxGeometry>
                </mxCell>
                <mxCell id="178" value="countries: country_t" style="swimlane;fontStyle=0;childLayout=stackLayout;horizontal=1;startSize=26;fillColor=#CCCCCC;horizontalStack=0;resizeParent=1;resizeParentMax=0;resizeLast=0;collapsible=1;marginBottom=0;" vertex="1" parent="1">
                    <mxGeometry x="55" y="-130" width="120" height="52" as="geometry"/>
                </mxCell>
                <mxCell id="189" style="edgeStyle=none;html=1;exitX=0.25;exitY=1;exitDx=0;exitDy=0;entryX=0;entryY=0.25;entryDx=0;entryDy=0;dashed=1;endArrow=open;endFill=0;" edge="1" parent="1" source="188" target="58">
                    <mxGeometry relative="1" as="geometry">
                        <Array as="points">
                            <mxPoint x="110" y="-278"/>
                        </Array>
                    </mxGeometry>
                </mxCell>
                <mxCell id="188" value="parties: party_t" style="swimlane;fontStyle=0;childLayout=stackLayout;horizontal=1;startSize=26;fillColor=#CCCCCC;horizontalStack=0;resizeParent=1;resizeParentMax=0;resizeLast=0;collapsible=1;marginBottom=0;" vertex="1" parent="1">
                    <mxGeometry x="80" y="-387" width="120" height="52" as="geometry"/>
                </mxCell>
                <mxCell id="191" style="edgeStyle=none;html=1;exitX=0.25;exitY=1;exitDx=0;exitDy=0;dashed=1;endArrow=open;endFill=0;entryX=0;entryY=0.25;entryDx=0;entryDy=0;" edge="1" parent="1" source="190" target="68">
                    <mxGeometry relative="1" as="geometry">
                        <mxPoint x="1000" y="-380" as="targetPoint"/>
                        <Array as="points">
                            <mxPoint x="960" y="-354"/>
                        </Array>
                    </mxGeometry>
                </mxCell>
                <mxCell id="190" value="periods: period_t" style="swimlane;fontStyle=0;childLayout=stackLayout;horizontal=1;startSize=26;fillColor=#CCCCCC;horizontalStack=0;resizeParent=1;resizeParentMax=0;resizeLast=0;collapsible=1;marginBottom=0;" vertex="1" parent="1">
                    <mxGeometry x="930" y="-482" width="120" height="52" as="geometry"/>
                </mxCell>
                <mxCell id="195" style="edgeStyle=none;html=1;exitX=0.25;exitY=1;exitDx=0;exitDy=0;entryX=1;entryY=0.5;entryDx=0;entryDy=0;dashed=1;endArrow=open;endFill=0;" edge="1" parent="1" source="192" target="91">
                    <mxGeometry relative="1" as="geometry">
                        <Array as="points">
                            <mxPoint x="1418" y="-71"/>
                        </Array>
                    </mxGeometry>
                </mxCell>
                <mxCell id="192" value="expenses: aremuneration_t" style="swimlane;fontStyle=0;childLayout=stackLayout;horizontal=1;startSize=26;fillColor=#CCCCCC;horizontalStack=0;resizeParent=1;resizeParentMax=0;resizeLast=0;collapsible=1;marginBottom=0;" vertex="1" parent="1">
                    <mxGeometry x="1380" y="-140" width="150" height="52" as="geometry"/>
                </mxCell>
                <mxCell id="196" style="edgeStyle=none;html=1;exitX=0.25;exitY=0;exitDx=0;exitDy=0;entryX=1;entryY=0.5;entryDx=0;entryDy=0;dashed=1;endArrow=open;endFill=0;" edge="1" parent="1" source="194" target="96">
                    <mxGeometry relative="1" as="geometry">
                        <Array as="points">
                            <mxPoint x="1418" y="7"/>
                        </Array>
                    </mxGeometry>
                </mxCell>
                <mxCell id="194" value="revenues: aremuneration_t" style="swimlane;fontStyle=0;childLayout=stackLayout;horizontal=1;startSize=26;fillColor=#CCCCCC;horizontalStack=0;resizeParent=1;resizeParentMax=0;resizeLast=0;collapsible=1;marginBottom=0;" vertex="1" parent="1">
                    <mxGeometry x="1380" y="24" width="150" height="52" as="geometry"/>
                </mxCell>
                <mxCell id="198" style="edgeStyle=none;html=1;exitX=0.5;exitY=0;exitDx=0;exitDy=0;entryX=1;entryY=0.5;entryDx=0;entryDy=0;dashed=1;endArrow=open;endFill=0;" edge="1" parent="1" source="197" target="87">
                    <mxGeometry relative="1" as="geometry">
                        <Array as="points">
                            <mxPoint x="1335" y="227"/>
                        </Array>
                    </mxGeometry>
                </mxCell>
                <mxCell id="197" value="headings: heading_t" style="swimlane;fontStyle=0;childLayout=stackLayout;horizontal=1;startSize=26;fillColor=#CCCCCC;horizontalStack=0;resizeParent=1;resizeParentMax=0;resizeLast=0;collapsible=1;marginBottom=0;" vertex="1" parent="1">
                    <mxGeometry x="1260" y="320" width="150" height="52" as="geometry"/>
                </mxCell>
            </root>
        </mxGraphModel>
    </diagram>
</mxfile>